# xmcd
#
# Track frame offsets:
#	150
#	11360
#	28287
#	46190
#	68455
#	87477
#	102997
#	115927
#	135070
#	151562
#
# Disc length: 2198
#
# Revision: 2
# Processed by: cddbd v1.5.1PL0 Copyright (c) Steve Scherf et al.
# Submitted via: CDex 1.40Beta9
# Normalized: r0:TDELIM( - ),TSWAP
#
DISCID=6a08940a
DTITLE=Blues Various - The Blues, Volume 1: Singin' the Blues
DYEAR=1996
DGENRE=Blues
TTITLE0=Roy Milton - Information Blues
TTITLE1=Johnny Otis - Barrelhouse Blues
TTITLE2=Joe Turner - Piney Brown Blues
TTITLE3=Joe Turner - Wee Baby Blues
TTITLE4=Johnny Otis - Slow Fuse
TTITLE5=Johnny Otis - Bad Luck Shadow
TTITLE6=Eddie Clean Head Vinson - Alimony Blues
TTITLE7=Richard Berry - Round About Midnight
TTITLE8=Johnny Otis - Low Down Dirty Dog Blues
TTITLE9=Louis Jordan - Beans and Cornbread
EXTD=YEAR: 1996 ID3G: 0
EXTT0=
EXTT1=
EXTT2=
EXTT3=
EXTT4=
EXTT5=
EXTT6=
EXTT7=
EXTT8=
EXTT9=
PLAYORDER=
